<svg width="25" height="25" viewBox="0 0 25 25" fill="none" xmlns="http://www.w3.org/2000/svg">
<path d="M2.48682 12.805C2.48682 9.03661 2.48682 7.15192 3.658 5.98173C4.82919 4.81155 6.71288 4.81055 10.4813 4.81055H14.4785C18.2468 4.81055 20.1315 4.81055 21.3017 5.98173C22.4719 7.15292 22.4729 9.03661 22.4729 12.805V14.8036C22.4729 18.572 22.4729 20.4567 21.3017 21.6268C20.1305 22.797 18.2468 22.798 14.4785 22.798H10.4813C6.71288 22.798 4.82819 22.798 3.658 21.6268C2.48782 20.4557 2.48682 18.572 2.48682 14.8036V12.805Z" stroke="#9C8D8D" stroke-width="1.5"/>
<path d="M7.4832 4.81048V3.31152M17.4762 4.81048V3.31152M2.98633 9.807H21.9731" stroke="#9C8D8D" stroke-width="1.5" stroke-linecap="round"/>
<path d="M18.4755 17.8012C18.4755 18.0662 18.3703 18.3204 18.1829 18.5078C17.9954 18.6952 17.7413 18.8005 17.4762 18.8005C17.2112 18.8005 16.957 18.6952 16.7696 18.5078C16.5822 18.3204 16.4769 18.0662 16.4769 17.8012C16.4769 17.5362 16.5822 17.282 16.7696 17.0946C16.957 16.9072 17.2112 16.8019 17.4762 16.8019C17.7413 16.8019 17.9954 16.9072 18.1829 17.0946C18.3703 17.282 18.4755 17.5362 18.4755 17.8012ZM18.4755 13.804C18.4755 14.069 18.3703 14.3232 18.1829 14.5106C17.9954 14.698 17.7413 14.8033 17.4762 14.8033C17.2112 14.8033 16.957 14.698 16.7696 14.5106C16.5822 14.3232 16.4769 14.069 16.4769 13.804C16.4769 13.539 16.5822 13.2848 16.7696 13.0974C16.957 12.91 17.2112 12.8047 17.4762 12.8047C17.7413 12.8047 17.9954 12.91 18.1829 13.0974C18.3703 13.2848 18.4755 13.539 18.4755 13.804ZM13.479 17.8012C13.479 18.0662 13.3737 18.3204 13.1863 18.5078C12.9989 18.6952 12.7447 18.8005 12.4797 18.8005C12.2147 18.8005 11.9605 18.6952 11.7731 18.5078C11.5857 18.3204 11.4804 18.0662 11.4804 17.8012C11.4804 17.5362 11.5857 17.282 11.7731 17.0946C11.9605 16.9072 12.2147 16.8019 12.4797 16.8019C12.7447 16.8019 12.9989 16.9072 13.1863 17.0946C13.3737 17.282 13.479 17.5362 13.479 17.8012ZM13.479 13.804C13.479 14.069 13.3737 14.3232 13.1863 14.5106C12.9989 14.698 12.7447 14.8033 12.4797 14.8033C12.2147 14.8033 11.9605 14.698 11.7731 14.5106C11.5857 14.3232 11.4804 14.069 11.4804 13.804C11.4804 13.539 11.5857 13.2848 11.7731 13.0974C11.9605 12.91 12.2147 12.8047 12.4797 12.8047C12.7447 12.8047 12.9989 12.91 13.1863 13.0974C13.3737 13.2848 13.479 13.539 13.479 13.804ZM8.4825 17.8012C8.4825 18.0662 8.37721 18.3204 8.18981 18.5078C8.0024 18.6952 7.74822 18.8005 7.48319 18.8005C7.21816 18.8005 6.96398 18.6952 6.77658 18.5078C6.58917 18.3204 6.48389 18.0662 6.48389 17.8012C6.48389 17.5362 6.58917 17.282 6.77658 17.0946C6.96398 16.9072 7.21816 16.8019 7.48319 16.8019C7.74822 16.8019 8.0024 16.9072 8.18981 17.0946C8.37721 17.282 8.4825 17.5362 8.4825 17.8012ZM8.4825 13.804C8.4825 14.069 8.37721 14.3232 8.18981 14.5106C8.0024 14.698 7.74822 14.8033 7.48319 14.8033C7.21816 14.8033 6.96398 14.698 6.77658 14.5106C6.58917 14.3232 6.48389 14.069 6.48389 13.804C6.48389 13.539 6.58917 13.2848 6.77658 13.0974C6.96398 12.91 7.21816 12.8047 7.48319 12.8047C7.74822 12.8047 8.0024 12.91 8.18981 13.0974C8.37721 13.2848 8.4825 13.539 8.4825 13.804Z" fill="#9C8D8D"/>
</svg>
