<svg width="34" height="34" viewBox="0 0 34 34" fill="none" xmlns="http://www.w3.org/2000/svg">
<path d="M17.0002 2.8335C24.8244 2.8335 31.1668 9.17591 31.1668 17.0002C31.1668 24.8244 24.8244 31.1668 17.0002 31.1668C9.17591 31.1668 2.8335 24.8244 2.8335 17.0002C2.8335 9.17591 9.17591 2.8335 17.0002 2.8335ZM17.0002 5.66683C13.9944 5.66683 11.1117 6.86087 8.98629 8.98629C6.86087 11.1117 5.66683 13.9944 5.66683 17.0002C5.66683 20.006 6.86087 22.8886 8.98629 25.014C11.1117 27.1395 13.9944 28.3335 17.0002 28.3335C20.006 28.3335 22.8886 27.1395 25.014 25.014C27.1395 22.8886 28.3335 20.006 28.3335 17.0002C28.3335 13.9944 27.1395 11.1117 25.014 8.98629C22.8886 6.86087 20.006 5.66683 17.0002 5.66683ZM17.0002 8.50016C17.3472 8.50021 17.6821 8.6276 17.9414 8.85818C18.2007 9.08875 18.3663 9.40647 18.4069 9.75108L18.4168 9.91683V16.4137L22.2517 20.2486C22.5058 20.5035 22.6533 20.8456 22.6643 21.2054C22.6753 21.5651 22.5489 21.9156 22.3109 22.1856C22.0728 22.4555 21.741 22.6248 21.3827 22.6589C21.0244 22.693 20.6665 22.5895 20.3817 22.3693L20.2486 22.2517L15.9986 18.0017C15.7784 17.7814 15.637 17.4946 15.5962 17.1857L15.5835 17.0002V9.91683C15.5835 9.54111 15.7328 9.18077 15.9984 8.9151C16.2641 8.64942 16.6244 8.50016 17.0002 8.50016Z" fill="black"/>
</svg>
