<svg width="34" height="34" viewBox="0 0 34 34" fill="none" xmlns="http://www.w3.org/2000/svg">
<path d="M28.3332 24.0833V9.91667C28.3332 6.84533 23.1439 4.25 16.9998 4.25C10.8558 4.25 5.6665 6.84533 5.6665 9.91667V24.0833C5.6665 27.1547 10.8558 29.75 16.9998 29.75C23.1439 29.75 28.3332 27.1547 28.3332 24.0833ZM16.9998 7.08333C22.2288 7.08333 25.4021 9.21825 25.4998 9.90817C25.4021 10.6151 22.2288 12.75 16.9998 12.75C11.7709 12.75 8.59759 10.6151 8.49984 9.92517C8.59759 9.21825 11.7709 7.08333 16.9998 7.08333ZM8.49984 13.6099C10.5951 14.8098 13.6523 15.5833 16.9998 15.5833C20.3474 15.5833 23.4046 14.8098 25.4998 13.6099V16.9915C25.4021 17.6984 22.2288 19.8333 16.9998 19.8333C11.7709 19.8333 8.59759 17.6984 8.49984 17V13.6099ZM8.49984 24.0833V20.6933C10.5951 21.8932 13.6523 22.6667 16.9998 22.6667C20.3474 22.6667 23.4046 21.8932 25.4998 20.6933V24.0748C25.4021 24.7817 22.2288 26.9167 16.9998 26.9167C11.7709 26.9167 8.59759 24.7817 8.49984 24.0833Z" fill="black"/>
</svg>
