<?xml version="1.0" standalone="no"?>
<!DOCTYPE svg PUBLIC "-//W3C//DTD SVG 20010904//EN"
 "http://www.w3.org/TR/2001/REC-SVG-20010904/DTD/svg10.dtd">
<svg version="1.0" xmlns="http://www.w3.org/2000/svg"
 width="200.000000pt" height="200.000000pt" viewBox="0 0 200.000000 200.000000"
 preserveAspectRatio="xMidYMid meet">

<g transform="translate(0.000000,200.000000) scale(0.100000,-0.100000)"
fill="#000000" stroke="none">
<path d="M485 1564 c-44 -23 -84 -64 -97 -101 -12 -32 -14 -33 -68 -33 -77 0
-99 -8 -107 -38 -9 -37 18 -52 97 -52 66 0 66 0 78 -33 18 -50 73 -98 131
-113 96 -25 202 27 233 113 l12 33 496 0 c539 0 540 0 527 52 -4 15 -16 28
-29 32 -13 3 -242 6 -510 6 -403 0 -488 2 -488 13 0 26 -60 97 -99 117 -49 24
-133 27 -176 4z m144 -79 c28 -14 61 -68 61 -100 0 -32 -33 -86 -61 -100 -37
-20 -99 -19 -127 1 -28 19 -52 65 -52 99 0 87 99 142 179 100z"/>
<path d="M1235 1176 c-48 -24 -105 -91 -105 -123 0 -10 -91 -13 -451 -15 -418
-3 -453 -4 -463 -20 -8 -13 -8 -23 0 -35 10 -17 45 -18 462 -21 l450 -2 6 -25
c9 -37 65 -96 111 -116 101 -46 216 0 260 103 l15 37 126 3 c108 3 128 6 138
21 8 12 8 22 0 35 -9 14 -31 18 -137 22 l-126 5 -24 45 c-52 99 -164 136 -262
86z m172 -100 c45 -49 46 -101 2 -150 -90 -103 -246 -3 -193 123 33 77 132 91
191 27z"/>
<path d="M479 790 c-43 -23 -86 -72 -95 -106 -6 -22 -11 -24 -71 -24 -76 0
-103 -12 -103 -45 0 -33 27 -45 99 -45 59 0 61 -1 75 -32 66 -157 288 -166
359 -16 l22 47 493 1 c320 0 500 4 513 10 21 12 25 40 7 58 -9 9 -136 12 -510
12 l-497 0 -24 48 c-34 69 -91 105 -170 109 -47 2 -71 -1 -98 -17z m169 -94
c32 -30 37 -40 37 -79 0 -146 -208 -167 -232 -24 -12 75 43 137 120 137 29 0
46 -8 75 -34z"/>
</g>
</svg>
