<svg width="34" height="34" viewBox="0 0 34 34" fill="none" xmlns="http://www.w3.org/2000/svg">
<path d="M15.5834 28.3335C13.0959 28.341 10.6963 27.4134 8.86068 25.7345C7.02505 24.0556 5.88745 21.7482 5.67349 19.2698C5.45953 16.7914 6.18484 14.3232 7.70557 12.3545C9.22631 10.3859 11.4314 9.06074 13.8834 8.64183C21.9584 7.0835 24.0834 6.34683 26.9168 2.8335C28.3334 5.66683 29.7501 8.75516 29.7501 14.1668C29.7501 21.9585 22.9784 28.3335 15.5834 28.3335Z" stroke="black" stroke-width="2" stroke-linecap="round" stroke-linejoin="round"/>
<path d="M2.8335 29.75C2.8335 25.5 5.45433 22.1567 10.0302 21.25C13.4585 20.57 17.0002 18.4167 18.4168 17" stroke="black" stroke-width="2" stroke-linecap="round" stroke-linejoin="round"/>
</svg>
