<?xml version="1.0" standalone="no"?>
<!DOCTYPE svg PUBLIC "-//W3C//DTD SVG 20010904//EN"
 "http://www.w3.org/TR/2001/REC-SVG-20010904/DTD/svg10.dtd">
<svg version="1.0" xmlns="http://www.w3.org/2000/svg"
 width="512.000000pt" height="512.000000pt" viewBox="0 0 512.000000 512.000000"
 preserveAspectRatio="xMidYMid meet">

<g transform="translate(0.000000,512.000000) scale(0.100000,-0.100000)"
fill="#000000" stroke="none">
<path d="M1508 5107 c-69 -31 -86 -62 -126 -232 -61 -254 -75 -368 -76 -615
-1 -385 45 -525 179 -546 61 -9 131 26 163 82 26 45 26 74 -3 224 -14 78 -16
129 -12 285 5 162 26 347 41 363 5 5 96 -63 207 -155 110 -92 208 -211 262
-318 67 -135 105 -342 93 -515 -5 -74 -46 -346 -59 -393 -2 -5 -34 18 -72 50
-93 77 -180 131 -301 186 -205 94 -383 135 -794 187 -134 17 -278 38 -320 46
-41 8 -90 14 -108 14 -70 0 -138 -58 -156 -133 -10 -43 22 -288 54 -412 72
-281 190 -486 387 -676 122 -117 252 -200 507 -323 120 -58 246 -126 280 -150
224 -161 315 -374 335 -782 6 -122 11 -157 27 -184 63 -108 200 -111 278 -6
19 25 21 41 20 179 -2 425 -138 785 -370 982 -120 102 -222 161 -486 284 -288
134 -454 283 -569 508 -51 101 -81 183 -103 291 l-14 62 32 -5 c17 -2 94 -12
171 -21 398 -44 625 -105 803 -215 155 -95 282 -236 375 -416 26 -50 61 -103
77 -117 85 -71 205 -44 250 56 15 34 16 63 12 232 -5 216 6 334 44 476 105
392 379 660 784 766 52 14 221 43 375 65 292 41 496 84 603 127 35 13 64 23
66 21 9 -9 -14 -419 -29 -527 -76 -558 -251 -841 -630 -1022 -44 -21 -183 -79
-310 -130 -333 -132 -453 -194 -611 -316 -232 -179 -336 -360 -375 -651 -21
-157 -5 -219 71 -271 46 -31 124 -31 170 1 53 35 70 74 81 184 21 203 59 295
169 403 139 137 257 202 650 360 385 154 524 234 685 394 239 238 369 555 431
1051 8 66 19 286 24 489 9 349 8 372 -9 411 -31 70 -104 106 -183 91 -18 -4
-67 -31 -108 -62 -175 -130 -289 -166 -715 -224 -126 -17 -275 -40 -330 -51
-284 -58 -551 -188 -741 -362 l-70 -65 -28 86 c-59 183 -162 348 -311 498 -97
98 -516 423 -572 445 -32 12 -82 10 -115 -4z"/>
<path d="M2180 940 c-383 -37 -711 -133 -1059 -310 -234 -119 -521 -322 -554
-393 -35 -73 -16 -154 46 -201 78 -60 134 -49 271 54 382 289 766 448 1226
511 142 20 498 17 644 -5 450 -66 844 -233 1198 -506 124 -96 188 -110 264
-58 47 32 68 75 68 134 0 64 -15 88 -102 159 -380 314 -888 531 -1408 600
-143 19 -463 27 -594 15z"/>
</g>
</svg>
